<?xml version="1.0" encoding="utf-8"?>
<!-- Generator: Adobe Illustrator 25.4.1, SVG Export Plug-In . SVG Version: 6.00 Build 0)  -->
<svg version="1.1" id="Capa_1" xmlns="http://www.w3.org/2000/svg" xmlns:xlink="http://www.w3.org/1999/xlink" x="0px" y="0px"
	 viewBox="0 0 368 368" style="enable-background:new 0 0 368 368;" xml:space="preserve">
<style type="text/css">
	.st0-iso-grande{fill-rule:evenodd;clip-rule:evenodd;fill:#1D70B7;}
</style>
<path class="st0-iso-grande" d="M184,1C82.9,1,1,82.9,1,184c0,101.1,81.9,183,183,183c101.1,0,183-81.9,183-183C367,82.9,285.1,1,184,1z
	 M184,326.5c-78.7,0-142.5-63.8-142.5-142.5S105.3,41.5,184,41.5c69.3,0,127,49.5,139.8,115h-90.2l22.9-53.6h-63.8l-22.3,53.6h-58.2
	l-25.1,59l57.6,0l-23.4,53.3h63.6l23.1-53.3l115,0C308.6,279,251.9,326.5,184,326.5z"/>
</svg>
